# xmcd
#
# Track frame offsets:
#	150
#	15373
#	25093
#	38608
#	53706
#	68833
#	80558
#	96693
#	114488
#	126621
#	139220
#	153756
#	165297
#	182482
#	195765
#	206020
#	220705
#	234588
#	247508
#	258275
#	272528
#	283831
#	300915
#	316859
#
# Disc length: 4408 seconds
#
# Revision: 0
# Processed by: cddbd v1.5.1PL2 Copyright (c) Steve Scherf et al.
# Submitted via: dBpowerAMP V4.0
#
DISCID=35113618
DTITLE=Veleiros do Sucesso (24 Super Sucesso "Vol. 01") - Vol. 01
DYEAR=1980
DGENRE=Brega/Country
TTITLE0=01 Se Você me Quiser (The Fevers)
TTITLE1=02 É Meu Amor (Jerry Adriani)
TTITLE2=03 Se Ainda Existe Amor (Baltazar)
TTITLE3=04 De Que Vale Tudo na Vida (José Augusto)
TTITLE4=05 Tenho um Amor Melhor Que o Seu (José Roberto)
TTITLE5=06 Doce, Doce Amor (Jerry Adriani)
TTITLE6=07 Amor, Amor, Amor (Reginaldo Rossi)
TTITLE7=08 Quando (Roberto Carlos)
TTITLE8=09 Pra Nunca Mais Chorar (José Roberto)
TTITLE9=10 Esta Noite Sonhei Com Você (Carlos Alexandre)
TTITLE10=11 Minha Qualidade, Meu Defeito (Paulo Sérgio)
TTITLE11=12 Eu Quero Apenas Carinho (José Augusto)
TTITLE12=13 Eu te Amo, te Amo, te Amo (Roberto Carlos)
TTITLE13=14 Uma Lágrima (José Roberto)
TTITLE14=15 Ainda Gosto Dela (José Roberto)
TTITLE15=16 Verdade Pura, Nua e Crua (Odair José)
TTITLE16=17 Que Saudade de Você (Odair José)
TTITLE17=18 Um Novo Amor (Jerry Adriani)
TTITLE18=19 Desilusão (Paulo Sérgio)
TTITLE19=20 Te Amo, Que Mais Posso Lhe Dizer (Ovelha)
TTITLE20=21 Olhos Feiticeiros (Jerry Adriani)
TTITLE21=22 A Raposa e as Uvas (Reginaldo Rossi)
TTITLE22=23 Tristeza Danada (Agnaldo Timóteo)
TTITLE23=24 Tudo de Mim (Paulo Sérgio)
EXTD=CD Brasileiro!!!
EXTT0=
EXTT1=
EXTT2=
EXTT3=
EXTT4=
EXTT5=
EXTT6=
EXTT7=
EXTT8=
EXTT9=
EXTT10=
EXTT11=
EXTT12=
EXTT13=
EXTT14=
EXTT15=
EXTT16=
EXTT17=
EXTT18=
EXTT19=
EXTT20=
EXTT21=
EXTT22=
EXTT23=
PLAYORDER=
